HIERARCHY
ROOT Hips
{
	OFFSET 0.00000 0.00000 0.00000
	CHANNELS 6 Xposition Yposition Zposition Zrotation Yrotation Xrotation 
	JOINT RightUpLegDummy
	{
		OFFSET 0 0 0
		CHANNELS 3 Zrotation Yrotation Xrotation
		JOINT RightUpLeg
		{
			OFFSET -3.52197 -3.41223 0.04002
			CHANNELS 3 Zrotation Yrotation Xrotation
			JOINT RightLeg
			{
				OFFSET 0.00006 -17.42390 1.60435
				CHANNELS 3 Zrotation Yrotation Xrotation
				JOINT RightFoot
				{
					OFFSET 0.06154 -16.50078 -1.63900
					CHANNELS 3 Zrotation Yrotation Xrotation
					JOINT RightToes
					{
						OFFSET 0.00298 -1.73825 3.34613
						CHANNELS 3 Zrotation Yrotation Xrotation
						End Site
						{
							OFFSET 0.00480 -0.05416 3.85043
						}
					}
				}
			}
		}
	}
	JOINT SpineDummy
	{
		OFFSET 0 0 0
		CHANNELS 3 Zrotation Yrotation Xrotation
		JOINT Spine
		{
			OFFSET 0.00000 4.68130 0.00000
			CHANNELS 3 Zrotation Yrotation Xrotation
			JOINT Spine1
			{
				OFFSET -0.00000 10.10138 0.05002
				CHANNELS 3 Zrotation Yrotation Xrotation
				JOINT HEadDummy
				{
					OFFSET 0 0 0
					CHANNELS 3 Zrotation Yrotation Xrotation
					JOINT Head
					{
						OFFSET -0.00000 3.43865 0.00438
						CHANNELS 3 Zrotation Yrotation Xrotation
						End Site
						{
							OFFSET -0.11417 5.02924 0.98962
						}
					}
				}
				JOINT LeftShoulder1Dummy
				{
					OFFSET 0 0 0
					CHANNELS 3 Zrotation Yrotation Xrotation
					JOINT LeftShoulder1
					{
						OFFSET 3.53937 -0.14262 -0.08662
						CHANNELS 3 Zrotation Yrotation Xrotation
						JOINT LeftArm
						{
							OFFSET 4.04833 -0.00133 0.12681
							CHANNELS 3 Zrotation Yrotation Xrotation
							JOINT LeftForeArm
							{
								OFFSET 10.33880 -0.01036 -0.55515
								CHANNELS 3 Zrotation Yrotation Xrotation
								JOINT LeftHand
								{
									OFFSET 8.69677 0.07543 0.40060
									CHANNELS 3 Zrotation Yrotation Xrotation
									End Site
									{
										OFFSET 5.28377 -0.21905 0.59205
									}
								}
							}
						}
					}
				}
				JOINT RightShoulderDummy
				{
					OFFSET 0 0 0
					CHANNELS 3 Zrotation Yrotation Xrotation
					JOINT RightShoulder
					{
						OFFSET -3.53937 -0.14262 -0.08660
						CHANNELS 3 Zrotation Yrotation Xrotation
						JOINT RightArm
						{
							OFFSET -4.04833 -0.00133 0.12683
							CHANNELS 3 Zrotation Yrotation Xrotation
							JOINT RightForeArm
							{
								OFFSET -10.37987 -0.01039 -0.55511
								CHANNELS 3 Zrotation Yrotation Xrotation
								JOINT RightHand
								{
									OFFSET -8.67398 0.07538 0.40058
									CHANNELS 3 Zrotation Yrotation Xrotation
									End Site
									{
										OFFSET -5.24810 -0.21916 0.59204
									}
								}
							}
						}
					}
				}
			}
		}
	}
	JOINT LeftUpLegDummy
	{
		OFFSET 0 0 0
		CHANNELS 3 Zrotation Yrotation Xrotation
		JOINT LeftUpLeg
		{
			OFFSET 3.52197 -3.41223 0.04002
			CHANNELS 3 Zrotation Yrotation Xrotation
			JOINT LeftLeg
			{
				OFFSET -0.00012 -17.42399 1.60337
				CHANNELS 3 Zrotation Yrotation Xrotation
				JOINT LeftFoot
				{
					OFFSET -0.09972 -16.50070 -1.63802
					CHANNELS 3 Zrotation Yrotation Xrotation
					JOINT LeftToes
					{
						OFFSET -0.01575 -1.73823 3.34611
						CHANNELS 3 Zrotation Yrotation Xrotation
						End Site
						{
							OFFSET 0.03150 -0.01868 3.85031
						}
					}
				}
			}
		}
	}
}
MOTION
Frames: 7
Frame Time: 0.033333
53.4092 36.4902 -8.7708 15.1739 -52.9678 2.0694 0.0000 0.0000 0.0000 -6.9986 6.0477 -40.6588 16.1446 34.6185 21.4776 -151.1189 53.0408 3.0784 0.0000 0.0000 -0.0000 0.0000 0.0000 0.0000 -40.5114 -8.8423 11.0991 58.2128 -7.0099 -27.2518 0.0000 0.0000 0.0000 -20.6494 15.3447 5.9238 0.0000 0.0000 0.0000 -72.6320 1.8346 1.4596 -8.5203 12.0221 -32.5202 -11.1227 2.8247 25.7026 17.5440 -1.8704 -1.0846 0.0000 0.0000 0.0000 68.8195 17.7763 17.2824 -60.0195 -34.8272 75.4584 -7.0176 68.9403 71.6058 -76.0957 13.8824 -14.6749 0.0000 0.0000 0.0000 -10.9109 2.1939 -15.6913 3.8592 20.9005 8.5824 177.6270 -39.8389 -10.7471 -0.0000 0.0000 0.0000
53.4525 36.2240 -8.6936 18.0709 -55.7037 1.4558 0.0000 0.0000 0.0000 -9.5614 7.0649 -44.4562 21.6669 39.9425 26.2457 -151.0723 63.9880 6.7477 0.0000 0.0000 -0.0000 0.0000 0.0000 0.0000 -41.3686 -9.9700 10.0372 59.0091 -6.6663 -28.0913 0.0000 0.0000 0.0000 -20.6344 16.9340 5.3659 0.0000 0.0000 0.0000 -72.6008 1.8785 1.4205 -9.1733 10.7287 -31.7977 -11.7290 1.4069 25.6527 17.5781 -2.0218 -1.1087 0.0000 0.0000 0.0000 68.8387 17.6615 17.1954 -60.8099 -35.7600 76.8436 -6.5125 67.6598 69.7986 -74.9290 14.8618 -15.0990 0.0000 0.0000 0.0000 -12.0789 1.3356 -18.8774 11.9196 41.0513 15.0734 174.8220 -21.7699 -10.4719 -0.0000 0.0000 0.0000
53.4021 35.9752 -8.5656 20.9558 -58.2667 1.5600 0.0000 0.0000 0.0000 -12.3078 7.7115 -48.7327 27.0767 44.7484 30.4589 -146.3769 74.2892 14.1105 0.0000 0.0000 -0.0000 0.0000 0.0000 0.0000 -41.7582 -11.5508 8.0264 59.6157 -6.5011 -28.7057 0.0000 0.0000 0.0000 -20.7240 18.2150 4.7785 0.0000 0.0000 0.0000 -72.5339 1.9110 1.3904 -9.9170 9.2262 -30.6331 -12.6135 -0.4952 25.3358 17.6326 -2.3208 -1.1559 0.0000 0.0000 0.0000 68.8286 17.7899 17.2962 -61.3957 -37.1839 77.8169 -6.1038 66.4725 68.3577 -73.9215 15.6913 -15.4324 0.0000 0.0000 0.0000 -12.9288 0.1355 -22.3931 20.2207 51.7514 22.5329 173.0730 -12.9108 -10.6203 -0.0000 0.0000 0.0000
53.2571 35.7588 -8.3945 23.6192 -60.4695 2.6158 0.0000 0.0000 0.0000 -14.4336 7.1917 -53.2370 30.3097 48.2276 32.5337 -132.2305 81.0476 29.7984 0.0000 0.0000 -0.0000 0.0000 0.0000 0.0000 -41.6309 -13.7446 5.1368 60.2565 -6.6894 -29.2574 0.0000 0.0000 0.0000 -20.8499 19.4963 4.2435 0.0000 0.0000 0.0000 -72.4984 1.9324 1.3709 -10.8639 7.7771 -27.9786 -13.5406 -3.1797 23.1659 17.9452 -2.3558 -1.1821 0.0000 0.0000 0.0000 68.8242 18.0927 17.5399 -62.1677 -39.0524 78.7814 -5.8639 65.7875 67.1960 -72.8597 16.6229 -15.8053 0.0000 0.0000 0.0000 -13.2658 -1.3863 -26.1952 26.5581 57.3848 28.6094 172.3810 -9.3134 -10.7686 -0.0000 0.0000 0.0000
53.0289 35.5572 -8.1904 26.3103 -62.3738 3.9663 0.0000 0.0000 0.0000 -16.2526 6.1276 -57.5847 32.2655 51.7854 33.2041 -93.2400 84.9588 69.9714 0.0000 0.0000 -0.0000 0.0000 0.0000 0.0000 -41.1048 -16.1119 1.8067 60.9599 -7.0465 -29.8311 0.0000 0.0000 0.0000 -20.9552 20.6984 3.7807 0.0000 0.0000 0.0000 -72.5160 1.9596 1.3476 -12.2255 6.3027 -21.0299 -13.6726 -7.3556 16.6265 18.1433 -2.1562 -1.1658 0.0000 0.0000 0.0000 68.8599 18.3199 17.7350 -63.4015 -41.0496 80.1201 -5.7483 65.6088 65.9777 -71.6223 17.6563 -16.1775 0.0000 0.0000 0.0000 -13.5967 -3.0936 -30.2672 30.2142 59.1368 32.1474 171.5400 -9.6157 -10.6680 -0.0000 0.0000 0.0000
52.7224 35.3597 -7.9560 29.6211 -64.2686 4.4605 0.0000 0.0000 0.0000 -18.1017 5.0604 -61.5003 32.7818 54.6057 32.7234 -39.4051 84.3830 124.9643 0.0000 0.0000 -0.0000 0.0000 0.0000 0.0000 -40.4386 -18.0698 -1.6454 61.4238 -7.3045 -30.1884 0.0000 0.0000 0.0000 -21.0465 21.5923 3.3642 0.0000 0.0000 0.0000 -72.5987 1.9694 1.3410 -13.9200 4.6657 -9.5376 -11.8442 -12.8299 6.0132 17.6828 -2.1578 -1.1353 0.0000 0.0000 0.0000 68.9008 18.3412 17.7650 -64.7185 -42.8866 81.6515 -5.6226 65.4263 64.6130 -70.5346 18.3730 -16.3515 0.0000 0.0000 0.0000 -14.0454 -4.7696 -33.8971 34.2811 60.0293 35.9574 170.1730 -10.4926 -10.4974 -0.0000 0.0000 0.0000
52.3241 35.1681 -7.6948 33.9268 -66.2047 3.4785 0.0000 0.0000 0.0000 -19.9229 4.1044 -64.8991 34.8482 58.0408 33.8583 -13.3861 79.1399 152.3206 0.0000 0.0000 -0.0000 0.0000 0.0000 0.0000 -39.8674 -19.5915 -5.1389 61.5166 -7.5000 -30.1370 0.0000 0.0000 0.0000 -21.1032 22.2085 3.0254 0.0000 0.0000 0.0000 -72.7530 1.9351 1.3747 -15.7323 3.1794 4.4304 -7.3815 -18.4993 -6.7251 16.6217 -2.4246 -1.1017 0.0000 0.0000 0.0000 68.9062 18.2020 17.6538 -65.5871 -44.3456 82.7896 -5.4446 64.9704 63.4216 -70.0098 18.5968 -16.3463 0.0000 0.0000 0.0000 -13.8888 -6.0283 -36.2286 44.6928 66.6517 46.3013 169.3540 -5.0405 -10.8752 -0.0000 0.0000 0.0000
